<?xml version="1.0" encoding="UTF-8"?>
<svg width="16px" height="16px" viewBox="0 0 16 16" version="1.1" xmlns="http://www.w3.org/2000/svg" xmlns:xlink="http://www.w3.org/1999/xlink">
    <!-- Generator: Sketch 61.2 (89653) - https://sketch.com -->
    <title>RavelryIcon-Color-16x16</title>
    <desc>Created with Sketch.</desc>
    <g id="RavelryIcon-Color-16x16" stroke="none" stroke-width="1" fill="none" fill-rule="evenodd">
        <g id="2019-Ravelry-Secondary-MarBlack-Black" fill="#EE6E62" fill-rule="nonzero">
            <path d="M15.9612968,7.19151717 C15.921596,6.85171008 15.9054364,6.50710573 15.8382045,6.17289547 C15.7566085,5.76692595 15.6524688,5.36275541 15.521995,4.9699784 C15.2939651,4.28336821 14.9609975,3.64692953 14.5073317,3.08025125 C14.3108229,2.83479061 14.1117207,2.58833053 13.8888778,2.36745593 C13.4240399,1.90691739 12.9059352,1.5123414 12.3405486,1.18052978 C11.7514214,0.834726102 11.1333666,0.554485203 10.476409,0.369790059 C10.1143142,0.268047821 9.7444389,0.191291398 9.37496259,0.119532138 C9.1521197,0.0763566501 8.92309227,0.064763232 8.69705736,0.0379784385 C8.68668329,0.0367791194 8.67730673,0.0261851339 8.66753117,0.0197887653 C8.31381546,0.0199886519 7.96009975,0.0199886519 7.60638404,0.0199886519 C7.52718204,0.0327813891 7.44837905,0.0503714027 7.36857855,0.0577672039 C6.98453865,0.0935468907 6.61167082,0.181896732 6.24279302,0.291034771 C5.78872818,0.425158625 5.35501247,0.609653882 4.93586035,0.82852962 C4.4967581,1.05799934 4.08099751,1.32604716 3.68438903,1.62247887 C3.48169576,1.77399285 3.28119701,1.93010422 3.09366584,2.09960799 C2.75930175,2.40223618 2.42413965,2.70546403 2.11012469,3.02868053 C1.68598504,3.46543257 1.32029925,3.95035727 1.00428928,4.47306051 C0.724189526,4.93659735 0.494164589,5.42192182 0.330773067,5.93862847 C0.21286783,6.3118166 0.127680798,6.6914011 0.0780049875,7.08097992 C0.0285286783,7.46955931 0.00738154613,7.85933803 0.0269326683,8.24851708 C0.049276808,8.69126572 0.0901745636,9.13261515 0.172369077,9.57096628 C0.286284289,10.1784214 0.464438903,10.7618902 0.722194514,11.3225718 C0.935461347,11.7861087 1.20199501,12.2154649 1.51102244,12.6216343 C1.77017456,12.9620411 2.0636409,13.2698663 2.37725686,13.5555041 C2.79780549,13.9384867 3.25845387,14.2706981 3.75042394,14.5607334 C4.33376559,14.9047381 4.94603491,15.1787826 5.58763092,15.3914618 C6.02413965,15.5361797 6.47082294,15.6393211 6.92329177,15.7146783 C7.12279302,15.7478595 7.32668329,15.7558549 7.52837905,15.7762434 C7.54194514,15.7776426 7.55451372,15.7884364 7.5674813,15.7946329 C7.92119701,15.7946329 8.27491272,15.7946329 8.62862843,15.7946329 C8.71102244,15.7818402 8.79301746,15.7638504 8.87600998,15.7570543 C9.41286783,15.7132791 9.93117207,15.5817538 10.4367082,15.4048542 C11.0020948,15.2067667 11.5443392,14.9537103 12.0454863,14.6220986 C12.3658853,14.4102189 12.6828928,14.1923426 12.9899252,13.9616736 C13.1800499,13.8187547 13.3510224,13.6494508 13.5257855,13.4865433 C13.6560599,13.3650123 13.7809476,13.2374847 13.9040399,13.1085579 C14.3006484,12.6921943 14.6429925,12.2342543 14.9368579,11.7401348 C15.2504738,11.2128341 15.5072319,10.6587487 15.6698254,10.066485 C15.7637905,9.72427924 15.832419,9.37487761 15.9004489,9.02627552 C15.9343641,8.85277402 15.9415461,8.67387559 15.9618953,8.49757568 C15.9630923,8.48718158 15.9736658,8.47778691 15.9800499,8.46799247 C15.9800499,8.06202296 15.9800499,7.65605344 15.9800499,7.25008392 C15.9736658,7.23049504 15.9636908,7.21150582 15.9612968,7.19151717 Z M10.6663342,7.15373861 C10.6663342,7.15373861 10.1216958,7.05579422 9.73067332,7.05579422 C8.83690773,7.05579422 8.62743142,7.54551619 8.62743142,8.27310312 L8.62743142,11.3513555 L6.21147132,11.3513555 L6.21147132,5.08291428 L8.62743142,5.08291428 L8.62743142,6.1323185 C8.92069825,5.25081896 9.50723192,4.94299372 10.6663342,4.94299372 L10.6663342,7.15373861 L10.6663342,7.15373861 Z" id="Shape"></path>
        </g>
    </g>
</svg>